<mxfile host="app.diagrams.net" modified="2023-07-18T12:57:22.998Z" agent="Mozilla/5.0 (Windows NT 10.0; Win64; x64) AppleWebKit/537.36 (KHTML, like Gecko) Chrome/114.0.0.0 Safari/537.36 Edg/114.0.1823.82" etag="EvE58OtJEMtt-A0TC85I" version="21.6.2" type="github">
  <diagram name="第 1 页" id="l4n5iQdbChV-fUuvlrTa">
    <mxGraphModel dx="710" dy="470" grid="1" gridSize="10" guides="1" tooltips="1" connect="1" arrows="1" fold="1" page="1" pageScale="1" pageWidth="827" pageHeight="1169" math="0" shadow="0">
      <root>
        <mxCell id="0" />
        <mxCell id="1" parent="0" />
        <mxCell id="loGFQT-SvpmqJWdkXrAG-1" value="" style="rounded=0;whiteSpace=wrap;html=1;fillColor=#008a00;strokeColor=#005700;fontColor=#ffffff;fontSize=14;fontStyle=1" vertex="1" parent="1">
          <mxGeometry x="110" y="180" width="100" height="40" as="geometry" />
        </mxCell>
        <mxCell id="loGFQT-SvpmqJWdkXrAG-2" value="" style="rounded=0;whiteSpace=wrap;html=1;fillColor=#008a00;strokeColor=#005700;fontColor=#ffffff;fontSize=14;fontStyle=1" vertex="1" parent="1">
          <mxGeometry x="210" y="180" width="100" height="40" as="geometry" />
        </mxCell>
        <mxCell id="loGFQT-SvpmqJWdkXrAG-3" value="" style="rounded=0;whiteSpace=wrap;html=1;fontSize=14;fontStyle=1" vertex="1" parent="1">
          <mxGeometry x="310" y="180" width="100" height="40" as="geometry" />
        </mxCell>
        <mxCell id="loGFQT-SvpmqJWdkXrAG-4" value="" style="rounded=0;whiteSpace=wrap;html=1;fontSize=14;fontStyle=1" vertex="1" parent="1">
          <mxGeometry x="410" y="180" width="100" height="40" as="geometry" />
        </mxCell>
        <mxCell id="loGFQT-SvpmqJWdkXrAG-5" value="" style="rounded=0;whiteSpace=wrap;html=1;fontSize=14;fontStyle=1" vertex="1" parent="1">
          <mxGeometry x="510" y="180" width="100" height="40" as="geometry" />
        </mxCell>
        <mxCell id="loGFQT-SvpmqJWdkXrAG-6" value="" style="rounded=0;whiteSpace=wrap;html=1;fillColor=#6d8764;strokeColor=#3A5431;fontColor=#ffffff;fontSize=14;fontStyle=1" vertex="1" parent="1">
          <mxGeometry x="110" y="220" width="100" height="40" as="geometry" />
        </mxCell>
        <mxCell id="loGFQT-SvpmqJWdkXrAG-7" value="" style="rounded=0;whiteSpace=wrap;html=1;fillColor=#6d8764;strokeColor=#3A5431;fontColor=#ffffff;fontSize=14;fontStyle=1" vertex="1" parent="1">
          <mxGeometry x="210" y="220" width="100" height="40" as="geometry" />
        </mxCell>
        <mxCell id="loGFQT-SvpmqJWdkXrAG-8" value="" style="rounded=0;whiteSpace=wrap;html=1;fontSize=14;fontStyle=1" vertex="1" parent="1">
          <mxGeometry x="310" y="220" width="100" height="40" as="geometry" />
        </mxCell>
        <mxCell id="loGFQT-SvpmqJWdkXrAG-9" value="" style="rounded=0;whiteSpace=wrap;html=1;fillColor=#008a00;strokeColor=#005700;fontColor=#ffffff;fontSize=14;fontStyle=1" vertex="1" parent="1">
          <mxGeometry x="410" y="220" width="100" height="40" as="geometry" />
        </mxCell>
        <mxCell id="loGFQT-SvpmqJWdkXrAG-10" value="" style="rounded=0;whiteSpace=wrap;html=1;fontSize=14;fontStyle=1" vertex="1" parent="1">
          <mxGeometry x="510" y="220" width="100" height="40" as="geometry" />
        </mxCell>
        <mxCell id="loGFQT-SvpmqJWdkXrAG-11" value="" style="rounded=0;whiteSpace=wrap;html=1;fontSize=14;fontStyle=1" vertex="1" parent="1">
          <mxGeometry x="110" y="260" width="100" height="40" as="geometry" />
        </mxCell>
        <mxCell id="loGFQT-SvpmqJWdkXrAG-12" value="" style="rounded=0;whiteSpace=wrap;html=1;fontSize=14;fontStyle=1" vertex="1" parent="1">
          <mxGeometry x="210" y="260" width="100" height="40" as="geometry" />
        </mxCell>
        <mxCell id="loGFQT-SvpmqJWdkXrAG-13" value="" style="rounded=0;whiteSpace=wrap;html=1;fillColor=#6d8764;fontColor=#ffffff;strokeColor=#3A5431;fontSize=14;fontStyle=1" vertex="1" parent="1">
          <mxGeometry x="310" y="260" width="100" height="40" as="geometry" />
        </mxCell>
        <mxCell id="loGFQT-SvpmqJWdkXrAG-14" value="" style="rounded=0;whiteSpace=wrap;html=1;fillColor=#008a00;fontColor=#ffffff;strokeColor=#005700;fontSize=14;fontStyle=1" vertex="1" parent="1">
          <mxGeometry x="410" y="260" width="100" height="40" as="geometry" />
        </mxCell>
        <mxCell id="loGFQT-SvpmqJWdkXrAG-15" value="" style="rounded=0;whiteSpace=wrap;html=1;fillColor=#008a00;fontColor=#ffffff;strokeColor=#005700;fontSize=14;fontStyle=1" vertex="1" parent="1">
          <mxGeometry x="510" y="260" width="100" height="40" as="geometry" />
        </mxCell>
        <mxCell id="loGFQT-SvpmqJWdkXrAG-16" value="" style="rounded=0;whiteSpace=wrap;html=1;fontSize=14;fontStyle=1" vertex="1" parent="1">
          <mxGeometry x="110" y="300" width="100" height="40" as="geometry" />
        </mxCell>
        <mxCell id="loGFQT-SvpmqJWdkXrAG-17" value="" style="rounded=0;whiteSpace=wrap;html=1;fillColor=#6d8764;strokeColor=#3A5431;fontColor=#ffffff;fontSize=14;fontStyle=1" vertex="1" parent="1">
          <mxGeometry x="210" y="300" width="100" height="40" as="geometry" />
        </mxCell>
        <mxCell id="loGFQT-SvpmqJWdkXrAG-18" value="" style="rounded=0;whiteSpace=wrap;html=1;fontSize=14;fontStyle=1" vertex="1" parent="1">
          <mxGeometry x="310" y="300" width="100" height="40" as="geometry" />
        </mxCell>
        <mxCell id="loGFQT-SvpmqJWdkXrAG-19" value="" style="rounded=0;whiteSpace=wrap;html=1;fontSize=14;fontStyle=1" vertex="1" parent="1">
          <mxGeometry x="410" y="300" width="100" height="40" as="geometry" />
        </mxCell>
        <mxCell id="loGFQT-SvpmqJWdkXrAG-20" value="" style="rounded=0;whiteSpace=wrap;html=1;fontSize=14;fontStyle=1" vertex="1" parent="1">
          <mxGeometry x="510" y="300" width="100" height="40" as="geometry" />
        </mxCell>
        <mxCell id="loGFQT-SvpmqJWdkXrAG-21" value="" style="ellipse;whiteSpace=wrap;html=1;aspect=fixed;fillColor=#a20025;fontColor=#ffffff;strokeColor=#6F0000;fontSize=14;fontStyle=1" vertex="1" parent="1">
          <mxGeometry x="135" y="70" width="50" height="50" as="geometry" />
        </mxCell>
        <mxCell id="loGFQT-SvpmqJWdkXrAG-22" value="" style="endArrow=classic;html=1;rounded=0;exitX=0.5;exitY=1;exitDx=0;exitDy=0;fontSize=14;fontStyle=1" edge="1" parent="1" source="loGFQT-SvpmqJWdkXrAG-21">
          <mxGeometry width="50" height="50" relative="1" as="geometry">
            <mxPoint x="170" y="170" as="sourcePoint" />
            <mxPoint x="160" y="170" as="targetPoint" />
          </mxGeometry>
        </mxCell>
        <mxCell id="loGFQT-SvpmqJWdkXrAG-23" value="&lt;font style=&quot;font-size: 14px;&quot;&gt;&lt;span style=&quot;font-size: 14px;&quot;&gt;根节点&lt;/span&gt;&lt;/font&gt;" style="text;html=1;align=center;verticalAlign=middle;resizable=0;points=[];autosize=1;strokeColor=none;fillColor=none;fontSize=14;fontStyle=1" vertex="1" parent="1">
          <mxGeometry x="185" y="80" width="70" height="30" as="geometry" />
        </mxCell>
        <mxCell id="loGFQT-SvpmqJWdkXrAG-24" value="" style="ellipse;whiteSpace=wrap;html=1;aspect=fixed;fillColor=#a20025;fontColor=#ffffff;strokeColor=#6F0000;fontSize=14;fontStyle=1" vertex="1" parent="1">
          <mxGeometry x="435" y="70" width="50" height="50" as="geometry" />
        </mxCell>
        <mxCell id="loGFQT-SvpmqJWdkXrAG-25" value="" style="endArrow=classic;html=1;rounded=0;exitX=0.5;exitY=1;exitDx=0;exitDy=0;entryX=0.5;entryY=0;entryDx=0;entryDy=0;fontSize=14;fontStyle=1" edge="1" parent="1" source="loGFQT-SvpmqJWdkXrAG-24" target="loGFQT-SvpmqJWdkXrAG-9">
          <mxGeometry width="50" height="50" relative="1" as="geometry">
            <mxPoint x="475" y="170" as="sourcePoint" />
            <mxPoint x="480" y="160" as="targetPoint" />
          </mxGeometry>
        </mxCell>
        <mxCell id="loGFQT-SvpmqJWdkXrAG-26" value="&lt;font style=&quot;font-size: 14px;&quot;&gt;&lt;span style=&quot;font-size: 14px;&quot;&gt;根节点&lt;/span&gt;&lt;/font&gt;" style="text;html=1;align=center;verticalAlign=middle;resizable=0;points=[];autosize=1;strokeColor=none;fillColor=none;fontSize=14;fontStyle=1" vertex="1" parent="1">
          <mxGeometry x="490" y="80" width="70" height="30" as="geometry" />
        </mxCell>
        <mxCell id="loGFQT-SvpmqJWdkXrAG-27" value="" style="endArrow=classic;html=1;rounded=0;fontSize=14;fontStyle=1" edge="1" parent="1">
          <mxGeometry width="50" height="50" relative="1" as="geometry">
            <mxPoint x="180" y="200" as="sourcePoint" />
            <mxPoint x="240" y="200" as="targetPoint" />
          </mxGeometry>
        </mxCell>
        <mxCell id="loGFQT-SvpmqJWdkXrAG-28" value="" style="endArrow=classic;html=1;rounded=0;fontSize=14;fontStyle=1" edge="1" parent="1">
          <mxGeometry width="50" height="50" relative="1" as="geometry">
            <mxPoint x="460" y="240" as="sourcePoint" />
            <mxPoint x="460" y="280" as="targetPoint" />
          </mxGeometry>
        </mxCell>
        <mxCell id="loGFQT-SvpmqJWdkXrAG-29" value="" style="endArrow=classic;html=1;rounded=0;entryX=0.3;entryY=0.5;entryDx=0;entryDy=0;entryPerimeter=0;fontSize=14;fontStyle=1" edge="1" parent="1" target="loGFQT-SvpmqJWdkXrAG-15">
          <mxGeometry width="50" height="50" relative="1" as="geometry">
            <mxPoint x="490" y="280" as="sourcePoint" />
            <mxPoint x="540" y="230" as="targetPoint" />
          </mxGeometry>
        </mxCell>
        <mxCell id="loGFQT-SvpmqJWdkXrAG-30" value="" style="rounded=0;whiteSpace=wrap;html=1;fillColor=#008a00;strokeColor=#005700;fontColor=#ffffff;fontSize=14;fontStyle=1" vertex="1" parent="1">
          <mxGeometry x="700" y="490" width="100" height="40" as="geometry" />
        </mxCell>
        <mxCell id="loGFQT-SvpmqJWdkXrAG-31" value="存活对象" style="text;html=1;align=center;verticalAlign=middle;resizable=0;points=[];autosize=1;strokeColor=none;fillColor=none;fontSize=14;fontStyle=1" vertex="1" parent="1">
          <mxGeometry x="828" y="495" width="80" height="30" as="geometry" />
        </mxCell>
        <mxCell id="loGFQT-SvpmqJWdkXrAG-32" value="" style="rounded=0;whiteSpace=wrap;html=1;fillColor=#6d8764;fontColor=#ffffff;strokeColor=#3A5431;fontSize=14;fontStyle=1" vertex="1" parent="1">
          <mxGeometry x="703" y="570" width="100" height="40" as="geometry" />
        </mxCell>
        <mxCell id="loGFQT-SvpmqJWdkXrAG-33" value="垃圾对象" style="text;html=1;align=center;verticalAlign=middle;resizable=0;points=[];autosize=1;strokeColor=none;fillColor=none;fontSize=14;fontStyle=1" vertex="1" parent="1">
          <mxGeometry x="828" y="575" width="80" height="30" as="geometry" />
        </mxCell>
        <mxCell id="loGFQT-SvpmqJWdkXrAG-34" value="" style="shape=flexArrow;endArrow=classic;html=1;rounded=0;fillColor=#d80073;strokeColor=#A50040;fontSize=14;fontStyle=1" edge="1" parent="1">
          <mxGeometry width="50" height="50" relative="1" as="geometry">
            <mxPoint x="340" y="530" as="sourcePoint" />
            <mxPoint x="340" y="660" as="targetPoint" />
          </mxGeometry>
        </mxCell>
        <mxCell id="loGFQT-SvpmqJWdkXrAG-35" value="&lt;font style=&quot;font-size: 18px;&quot;&gt;回收后&lt;/font&gt;" style="text;html=1;align=center;verticalAlign=middle;resizable=0;points=[];autosize=1;strokeColor=none;fillColor=none;fontSize=14;fontStyle=1;fontColor=#FF33FF;" vertex="1" parent="1">
          <mxGeometry x="350" y="565" width="80" height="40" as="geometry" />
        </mxCell>
        <mxCell id="loGFQT-SvpmqJWdkXrAG-36" value="" style="rounded=0;whiteSpace=wrap;html=1;fontSize=14;fontStyle=1" vertex="1" parent="1">
          <mxGeometry x="110" y="800" width="100" height="40" as="geometry" />
        </mxCell>
        <mxCell id="loGFQT-SvpmqJWdkXrAG-37" value="" style="rounded=0;whiteSpace=wrap;html=1;fontSize=14;fontStyle=1" vertex="1" parent="1">
          <mxGeometry x="210" y="800" width="100" height="40" as="geometry" />
        </mxCell>
        <mxCell id="loGFQT-SvpmqJWdkXrAG-38" value="" style="rounded=0;whiteSpace=wrap;html=1;fontSize=14;fontStyle=1;" vertex="1" parent="1">
          <mxGeometry x="310" y="800" width="100" height="40" as="geometry" />
        </mxCell>
        <mxCell id="loGFQT-SvpmqJWdkXrAG-39" value="" style="rounded=0;whiteSpace=wrap;html=1;fontSize=14;fontStyle=1;" vertex="1" parent="1">
          <mxGeometry x="410" y="800" width="100" height="40" as="geometry" />
        </mxCell>
        <mxCell id="loGFQT-SvpmqJWdkXrAG-40" value="" style="rounded=0;whiteSpace=wrap;html=1;fontSize=14;fontStyle=1;" vertex="1" parent="1">
          <mxGeometry x="510" y="800" width="100" height="40" as="geometry" />
        </mxCell>
        <mxCell id="loGFQT-SvpmqJWdkXrAG-41" value="" style="rounded=0;whiteSpace=wrap;html=1;fontSize=14;fontStyle=1" vertex="1" parent="1">
          <mxGeometry x="110" y="840" width="100" height="40" as="geometry" />
        </mxCell>
        <mxCell id="loGFQT-SvpmqJWdkXrAG-42" value="" style="rounded=0;whiteSpace=wrap;html=1;fontSize=14;fontStyle=1" vertex="1" parent="1">
          <mxGeometry x="210" y="840" width="100" height="40" as="geometry" />
        </mxCell>
        <mxCell id="loGFQT-SvpmqJWdkXrAG-43" value="" style="rounded=0;whiteSpace=wrap;html=1;fontSize=14;fontStyle=1" vertex="1" parent="1">
          <mxGeometry x="310" y="840" width="100" height="40" as="geometry" />
        </mxCell>
        <mxCell id="loGFQT-SvpmqJWdkXrAG-44" value="" style="rounded=0;whiteSpace=wrap;html=1;fontSize=14;fontStyle=1" vertex="1" parent="1">
          <mxGeometry x="410" y="840" width="100" height="40" as="geometry" />
        </mxCell>
        <mxCell id="loGFQT-SvpmqJWdkXrAG-45" value="" style="rounded=0;whiteSpace=wrap;html=1;fontSize=14;fontStyle=1" vertex="1" parent="1">
          <mxGeometry x="510" y="840" width="100" height="40" as="geometry" />
        </mxCell>
        <mxCell id="loGFQT-SvpmqJWdkXrAG-46" value="" style="rounded=0;whiteSpace=wrap;html=1;fontSize=14;fontStyle=1" vertex="1" parent="1">
          <mxGeometry x="110" y="880" width="100" height="40" as="geometry" />
        </mxCell>
        <mxCell id="loGFQT-SvpmqJWdkXrAG-47" value="" style="rounded=0;whiteSpace=wrap;html=1;fontSize=14;fontStyle=1" vertex="1" parent="1">
          <mxGeometry x="210" y="880" width="100" height="40" as="geometry" />
        </mxCell>
        <mxCell id="loGFQT-SvpmqJWdkXrAG-48" value="" style="rounded=0;whiteSpace=wrap;html=1;fontSize=14;fontStyle=1" vertex="1" parent="1">
          <mxGeometry x="310" y="880" width="100" height="40" as="geometry" />
        </mxCell>
        <mxCell id="loGFQT-SvpmqJWdkXrAG-49" value="" style="rounded=0;whiteSpace=wrap;html=1;fontSize=14;fontStyle=1" vertex="1" parent="1">
          <mxGeometry x="410" y="880" width="100" height="40" as="geometry" />
        </mxCell>
        <mxCell id="loGFQT-SvpmqJWdkXrAG-50" value="" style="rounded=0;whiteSpace=wrap;html=1;fontSize=14;fontStyle=1" vertex="1" parent="1">
          <mxGeometry x="510" y="880" width="100" height="40" as="geometry" />
        </mxCell>
        <mxCell id="loGFQT-SvpmqJWdkXrAG-51" value="" style="rounded=0;whiteSpace=wrap;html=1;fontSize=14;fontStyle=1" vertex="1" parent="1">
          <mxGeometry x="110" y="920" width="100" height="40" as="geometry" />
        </mxCell>
        <mxCell id="loGFQT-SvpmqJWdkXrAG-52" value="" style="rounded=0;whiteSpace=wrap;html=1;fontSize=14;fontStyle=1" vertex="1" parent="1">
          <mxGeometry x="210" y="920" width="100" height="40" as="geometry" />
        </mxCell>
        <mxCell id="loGFQT-SvpmqJWdkXrAG-53" value="" style="rounded=0;whiteSpace=wrap;html=1;fontSize=14;fontStyle=1" vertex="1" parent="1">
          <mxGeometry x="310" y="920" width="100" height="40" as="geometry" />
        </mxCell>
        <mxCell id="loGFQT-SvpmqJWdkXrAG-54" value="" style="rounded=0;whiteSpace=wrap;html=1;fontSize=14;fontStyle=1" vertex="1" parent="1">
          <mxGeometry x="410" y="920" width="100" height="40" as="geometry" />
        </mxCell>
        <mxCell id="loGFQT-SvpmqJWdkXrAG-55" value="" style="rounded=0;whiteSpace=wrap;html=1;fontSize=14;fontStyle=1" vertex="1" parent="1">
          <mxGeometry x="510" y="920" width="100" height="40" as="geometry" />
        </mxCell>
        <mxCell id="loGFQT-SvpmqJWdkXrAG-56" value="" style="ellipse;whiteSpace=wrap;html=1;aspect=fixed;fillColor=#a20025;fontColor=#ffffff;strokeColor=#6F0000;fontSize=14;fontStyle=1" vertex="1" parent="1">
          <mxGeometry x="135" y="690" width="50" height="50" as="geometry" />
        </mxCell>
        <mxCell id="loGFQT-SvpmqJWdkXrAG-58" value="&lt;font style=&quot;font-size: 14px;&quot;&gt;&lt;span style=&quot;font-size: 14px;&quot;&gt;根节点&lt;/span&gt;&lt;/font&gt;" style="text;html=1;align=center;verticalAlign=middle;resizable=0;points=[];autosize=1;strokeColor=none;fillColor=none;fontSize=14;fontStyle=1" vertex="1" parent="1">
          <mxGeometry x="185" y="700" width="70" height="30" as="geometry" />
        </mxCell>
        <mxCell id="loGFQT-SvpmqJWdkXrAG-59" value="" style="ellipse;whiteSpace=wrap;html=1;aspect=fixed;fillColor=#a20025;fontColor=#ffffff;strokeColor=#6F0000;fontSize=14;fontStyle=1" vertex="1" parent="1">
          <mxGeometry x="335" y="690" width="50" height="50" as="geometry" />
        </mxCell>
        <mxCell id="loGFQT-SvpmqJWdkXrAG-61" value="&lt;font style=&quot;font-size: 14px;&quot;&gt;&lt;span style=&quot;font-size: 14px;&quot;&gt;根节点&lt;/span&gt;&lt;/font&gt;" style="text;html=1;align=center;verticalAlign=middle;resizable=0;points=[];autosize=1;strokeColor=none;fillColor=none;fontSize=14;fontStyle=1" vertex="1" parent="1">
          <mxGeometry x="399" y="700" width="70" height="30" as="geometry" />
        </mxCell>
        <mxCell id="loGFQT-SvpmqJWdkXrAG-65" value="" style="rounded=0;whiteSpace=wrap;html=1;fontSize=14;fontStyle=1" vertex="1" parent="1">
          <mxGeometry x="703" y="660" width="100" height="40" as="geometry" />
        </mxCell>
        <mxCell id="loGFQT-SvpmqJWdkXrAG-66" value="空余对象" style="text;html=1;align=center;verticalAlign=middle;resizable=0;points=[];autosize=1;strokeColor=none;fillColor=none;fontSize=14;fontStyle=1" vertex="1" parent="1">
          <mxGeometry x="828" y="665" width="80" height="30" as="geometry" />
        </mxCell>
        <mxCell id="loGFQT-SvpmqJWdkXrAG-67" value="" style="endArrow=classic;html=1;rounded=0;fontSize=14;fontStyle=1" edge="1" parent="1">
          <mxGeometry width="50" height="50" relative="1" as="geometry">
            <mxPoint x="713" y="770" as="sourcePoint" />
            <mxPoint x="803" y="770" as="targetPoint" />
          </mxGeometry>
        </mxCell>
        <mxCell id="loGFQT-SvpmqJWdkXrAG-68" value="引用关系" style="text;html=1;align=center;verticalAlign=middle;resizable=0;points=[];autosize=1;strokeColor=none;fillColor=none;fontSize=14;fontStyle=1" vertex="1" parent="1">
          <mxGeometry x="828" y="750" width="80" height="30" as="geometry" />
        </mxCell>
        <mxCell id="loGFQT-SvpmqJWdkXrAG-69" value="" style="rounded=0;whiteSpace=wrap;html=1;fontSize=14;fontStyle=1" vertex="1" parent="1">
          <mxGeometry x="110" y="340" width="100" height="40" as="geometry" />
        </mxCell>
        <mxCell id="loGFQT-SvpmqJWdkXrAG-70" value="" style="rounded=0;whiteSpace=wrap;html=1;fontSize=14;fontStyle=1" vertex="1" parent="1">
          <mxGeometry x="210" y="340" width="100" height="40" as="geometry" />
        </mxCell>
        <mxCell id="loGFQT-SvpmqJWdkXrAG-71" value="" style="rounded=0;whiteSpace=wrap;html=1;fontSize=14;fontStyle=1" vertex="1" parent="1">
          <mxGeometry x="310" y="340" width="100" height="40" as="geometry" />
        </mxCell>
        <mxCell id="loGFQT-SvpmqJWdkXrAG-72" value="" style="rounded=0;whiteSpace=wrap;html=1;fontSize=14;fontStyle=1" vertex="1" parent="1">
          <mxGeometry x="410" y="340" width="100" height="40" as="geometry" />
        </mxCell>
        <mxCell id="loGFQT-SvpmqJWdkXrAG-73" value="" style="rounded=0;whiteSpace=wrap;html=1;fontSize=14;fontStyle=1" vertex="1" parent="1">
          <mxGeometry x="510" y="340" width="100" height="40" as="geometry" />
        </mxCell>
        <mxCell id="loGFQT-SvpmqJWdkXrAG-74" value="" style="rounded=0;whiteSpace=wrap;html=1;fontSize=14;fontStyle=1" vertex="1" parent="1">
          <mxGeometry x="110" y="380" width="100" height="40" as="geometry" />
        </mxCell>
        <mxCell id="loGFQT-SvpmqJWdkXrAG-75" value="" style="rounded=0;whiteSpace=wrap;html=1;fontSize=14;fontStyle=1" vertex="1" parent="1">
          <mxGeometry x="210" y="380" width="100" height="40" as="geometry" />
        </mxCell>
        <mxCell id="loGFQT-SvpmqJWdkXrAG-76" value="" style="rounded=0;whiteSpace=wrap;html=1;fontSize=14;fontStyle=1" vertex="1" parent="1">
          <mxGeometry x="310" y="380" width="100" height="40" as="geometry" />
        </mxCell>
        <mxCell id="loGFQT-SvpmqJWdkXrAG-77" value="" style="rounded=0;whiteSpace=wrap;html=1;fontSize=14;fontStyle=1" vertex="1" parent="1">
          <mxGeometry x="410" y="380" width="100" height="40" as="geometry" />
        </mxCell>
        <mxCell id="loGFQT-SvpmqJWdkXrAG-78" value="" style="rounded=0;whiteSpace=wrap;html=1;fontSize=14;fontStyle=1" vertex="1" parent="1">
          <mxGeometry x="510" y="380" width="100" height="40" as="geometry" />
        </mxCell>
        <mxCell id="loGFQT-SvpmqJWdkXrAG-79" value="" style="rounded=0;whiteSpace=wrap;html=1;fontSize=14;fontStyle=1" vertex="1" parent="1">
          <mxGeometry x="110" y="420" width="100" height="40" as="geometry" />
        </mxCell>
        <mxCell id="loGFQT-SvpmqJWdkXrAG-80" value="" style="rounded=0;whiteSpace=wrap;html=1;fontSize=14;fontStyle=1" vertex="1" parent="1">
          <mxGeometry x="210" y="420" width="100" height="40" as="geometry" />
        </mxCell>
        <mxCell id="loGFQT-SvpmqJWdkXrAG-81" value="" style="rounded=0;whiteSpace=wrap;html=1;fontSize=14;fontStyle=1" vertex="1" parent="1">
          <mxGeometry x="310" y="420" width="100" height="40" as="geometry" />
        </mxCell>
        <mxCell id="loGFQT-SvpmqJWdkXrAG-82" value="" style="rounded=0;whiteSpace=wrap;html=1;fontSize=14;fontStyle=1" vertex="1" parent="1">
          <mxGeometry x="410" y="420" width="100" height="40" as="geometry" />
        </mxCell>
        <mxCell id="loGFQT-SvpmqJWdkXrAG-83" value="" style="rounded=0;whiteSpace=wrap;html=1;fontSize=14;fontStyle=1" vertex="1" parent="1">
          <mxGeometry x="510" y="420" width="100" height="40" as="geometry" />
        </mxCell>
        <mxCell id="loGFQT-SvpmqJWdkXrAG-84" value="" style="rounded=0;whiteSpace=wrap;html=1;fontSize=14;fontStyle=1" vertex="1" parent="1">
          <mxGeometry x="110" y="460" width="100" height="40" as="geometry" />
        </mxCell>
        <mxCell id="loGFQT-SvpmqJWdkXrAG-85" value="" style="rounded=0;whiteSpace=wrap;html=1;fontSize=14;fontStyle=1" vertex="1" parent="1">
          <mxGeometry x="210" y="460" width="100" height="40" as="geometry" />
        </mxCell>
        <mxCell id="loGFQT-SvpmqJWdkXrAG-86" value="" style="rounded=0;whiteSpace=wrap;html=1;fontSize=14;fontStyle=1" vertex="1" parent="1">
          <mxGeometry x="310" y="460" width="100" height="40" as="geometry" />
        </mxCell>
        <mxCell id="loGFQT-SvpmqJWdkXrAG-87" value="" style="rounded=0;whiteSpace=wrap;html=1;fontSize=14;fontStyle=1" vertex="1" parent="1">
          <mxGeometry x="410" y="460" width="100" height="40" as="geometry" />
        </mxCell>
        <mxCell id="loGFQT-SvpmqJWdkXrAG-88" value="" style="rounded=0;whiteSpace=wrap;html=1;fontSize=14;fontStyle=1" vertex="1" parent="1">
          <mxGeometry x="510" y="460" width="100" height="40" as="geometry" />
        </mxCell>
        <mxCell id="loGFQT-SvpmqJWdkXrAG-92" value="" style="endArrow=none;html=1;rounded=0;strokeColor=#FF3333;" edge="1" parent="1">
          <mxGeometry width="50" height="50" relative="1" as="geometry">
            <mxPoint x="40" y="340" as="sourcePoint" />
            <mxPoint x="670" y="340" as="targetPoint" />
          </mxGeometry>
        </mxCell>
        <mxCell id="loGFQT-SvpmqJWdkXrAG-93" value="" style="rounded=0;whiteSpace=wrap;html=1;fontSize=14;fontStyle=1;fillColor=#008a00;fontColor=#ffffff;strokeColor=#005700;" vertex="1" parent="1">
          <mxGeometry x="110" y="960" width="100" height="40" as="geometry" />
        </mxCell>
        <mxCell id="loGFQT-SvpmqJWdkXrAG-94" value="" style="rounded=0;whiteSpace=wrap;html=1;fontSize=14;fontStyle=1;fillColor=#008a00;fontColor=#ffffff;strokeColor=#005700;" vertex="1" parent="1">
          <mxGeometry x="210" y="960" width="100" height="40" as="geometry" />
        </mxCell>
        <mxCell id="loGFQT-SvpmqJWdkXrAG-95" value="" style="rounded=0;whiteSpace=wrap;html=1;fontSize=14;fontStyle=1;fillColor=#008a00;fontColor=#ffffff;strokeColor=#005700;" vertex="1" parent="1">
          <mxGeometry x="310" y="960" width="100" height="40" as="geometry" />
        </mxCell>
        <mxCell id="loGFQT-SvpmqJWdkXrAG-96" value="" style="rounded=0;whiteSpace=wrap;html=1;fontSize=14;fontStyle=1;fillColor=#008a00;fontColor=#ffffff;strokeColor=#005700;" vertex="1" parent="1">
          <mxGeometry x="410" y="960" width="100" height="40" as="geometry" />
        </mxCell>
        <mxCell id="loGFQT-SvpmqJWdkXrAG-97" value="" style="rounded=0;whiteSpace=wrap;html=1;fontSize=14;fontStyle=1;fillColor=#008a00;fontColor=#ffffff;strokeColor=#005700;" vertex="1" parent="1">
          <mxGeometry x="510" y="960" width="100" height="40" as="geometry" />
        </mxCell>
        <mxCell id="loGFQT-SvpmqJWdkXrAG-98" value="" style="rounded=0;whiteSpace=wrap;html=1;fontSize=14;fontStyle=1" vertex="1" parent="1">
          <mxGeometry x="110" y="1000" width="100" height="40" as="geometry" />
        </mxCell>
        <mxCell id="loGFQT-SvpmqJWdkXrAG-99" value="" style="rounded=0;whiteSpace=wrap;html=1;fontSize=14;fontStyle=1" vertex="1" parent="1">
          <mxGeometry x="210" y="1000" width="100" height="40" as="geometry" />
        </mxCell>
        <mxCell id="loGFQT-SvpmqJWdkXrAG-100" value="" style="rounded=0;whiteSpace=wrap;html=1;fontSize=14;fontStyle=1" vertex="1" parent="1">
          <mxGeometry x="310" y="1000" width="100" height="40" as="geometry" />
        </mxCell>
        <mxCell id="loGFQT-SvpmqJWdkXrAG-101" value="" style="rounded=0;whiteSpace=wrap;html=1;fontSize=14;fontStyle=1" vertex="1" parent="1">
          <mxGeometry x="410" y="1000" width="100" height="40" as="geometry" />
        </mxCell>
        <mxCell id="loGFQT-SvpmqJWdkXrAG-102" value="" style="rounded=0;whiteSpace=wrap;html=1;fontSize=14;fontStyle=1" vertex="1" parent="1">
          <mxGeometry x="510" y="1000" width="100" height="40" as="geometry" />
        </mxCell>
        <mxCell id="loGFQT-SvpmqJWdkXrAG-103" value="" style="rounded=0;whiteSpace=wrap;html=1;fontSize=14;fontStyle=1" vertex="1" parent="1">
          <mxGeometry x="110" y="1040" width="100" height="40" as="geometry" />
        </mxCell>
        <mxCell id="loGFQT-SvpmqJWdkXrAG-104" value="" style="rounded=0;whiteSpace=wrap;html=1;fontSize=14;fontStyle=1" vertex="1" parent="1">
          <mxGeometry x="210" y="1040" width="100" height="40" as="geometry" />
        </mxCell>
        <mxCell id="loGFQT-SvpmqJWdkXrAG-105" value="" style="rounded=0;whiteSpace=wrap;html=1;fontSize=14;fontStyle=1" vertex="1" parent="1">
          <mxGeometry x="310" y="1040" width="100" height="40" as="geometry" />
        </mxCell>
        <mxCell id="loGFQT-SvpmqJWdkXrAG-106" value="" style="rounded=0;whiteSpace=wrap;html=1;fontSize=14;fontStyle=1" vertex="1" parent="1">
          <mxGeometry x="410" y="1040" width="100" height="40" as="geometry" />
        </mxCell>
        <mxCell id="loGFQT-SvpmqJWdkXrAG-107" value="" style="rounded=0;whiteSpace=wrap;html=1;fontSize=14;fontStyle=1" vertex="1" parent="1">
          <mxGeometry x="510" y="1040" width="100" height="40" as="geometry" />
        </mxCell>
        <mxCell id="loGFQT-SvpmqJWdkXrAG-108" value="" style="rounded=0;whiteSpace=wrap;html=1;fontSize=14;fontStyle=1" vertex="1" parent="1">
          <mxGeometry x="110" y="1080" width="100" height="40" as="geometry" />
        </mxCell>
        <mxCell id="loGFQT-SvpmqJWdkXrAG-109" value="" style="rounded=0;whiteSpace=wrap;html=1;fontSize=14;fontStyle=1" vertex="1" parent="1">
          <mxGeometry x="210" y="1080" width="100" height="40" as="geometry" />
        </mxCell>
        <mxCell id="loGFQT-SvpmqJWdkXrAG-110" value="" style="rounded=0;whiteSpace=wrap;html=1;fontSize=14;fontStyle=1" vertex="1" parent="1">
          <mxGeometry x="310" y="1080" width="100" height="40" as="geometry" />
        </mxCell>
        <mxCell id="loGFQT-SvpmqJWdkXrAG-111" value="" style="rounded=0;whiteSpace=wrap;html=1;fontSize=14;fontStyle=1" vertex="1" parent="1">
          <mxGeometry x="410" y="1080" width="100" height="40" as="geometry" />
        </mxCell>
        <mxCell id="loGFQT-SvpmqJWdkXrAG-112" value="" style="rounded=0;whiteSpace=wrap;html=1;fontSize=14;fontStyle=1" vertex="1" parent="1">
          <mxGeometry x="510" y="1080" width="100" height="40" as="geometry" />
        </mxCell>
        <mxCell id="loGFQT-SvpmqJWdkXrAG-113" value="" style="endArrow=none;html=1;rounded=0;strokeColor=#FF3333;" edge="1" parent="1">
          <mxGeometry width="50" height="50" relative="1" as="geometry">
            <mxPoint x="20" y="1140" as="sourcePoint" />
            <mxPoint x="650" y="1140" as="targetPoint" />
          </mxGeometry>
        </mxCell>
        <mxCell id="loGFQT-SvpmqJWdkXrAG-64" value="" style="endArrow=classic;html=1;rounded=0;entryX=0.3;entryY=0.5;entryDx=0;entryDy=0;entryPerimeter=0;fontSize=14;fontStyle=1;exitX=0.8;exitY=0.5;exitDx=0;exitDy=0;exitPerimeter=0;" edge="1" parent="1">
          <mxGeometry width="50" height="50" relative="1" as="geometry">
            <mxPoint x="490" y="979.5" as="sourcePoint" />
            <mxPoint x="540" y="979.5" as="targetPoint" />
          </mxGeometry>
        </mxCell>
        <mxCell id="loGFQT-SvpmqJWdkXrAG-63" value="" style="endArrow=classic;html=1;rounded=0;fontSize=14;fontStyle=1;exitX=0.8;exitY=0.5;exitDx=0;exitDy=0;exitPerimeter=0;" edge="1" parent="1">
          <mxGeometry width="50" height="50" relative="1" as="geometry">
            <mxPoint x="385" y="979.5" as="sourcePoint" />
            <mxPoint x="435" y="979.5" as="targetPoint" />
          </mxGeometry>
        </mxCell>
        <mxCell id="loGFQT-SvpmqJWdkXrAG-62" value="" style="endArrow=classic;html=1;rounded=0;fontSize=14;fontStyle=1" edge="1" parent="1">
          <mxGeometry width="50" height="50" relative="1" as="geometry">
            <mxPoint x="190" y="980" as="sourcePoint" />
            <mxPoint x="230" y="980" as="targetPoint" />
          </mxGeometry>
        </mxCell>
        <mxCell id="loGFQT-SvpmqJWdkXrAG-57" value="" style="endArrow=classic;html=1;rounded=0;exitX=0.5;exitY=1;exitDx=0;exitDy=0;fontSize=14;fontStyle=1;" edge="1" parent="1" source="loGFQT-SvpmqJWdkXrAG-56">
          <mxGeometry width="50" height="50" relative="1" as="geometry">
            <mxPoint x="170" y="790" as="sourcePoint" />
            <mxPoint x="160" y="950" as="targetPoint" />
          </mxGeometry>
        </mxCell>
        <mxCell id="loGFQT-SvpmqJWdkXrAG-60" value="" style="endArrow=classic;html=1;rounded=0;exitX=0.5;exitY=1;exitDx=0;exitDy=0;fontSize=14;fontStyle=1;" edge="1" parent="1" source="loGFQT-SvpmqJWdkXrAG-59">
          <mxGeometry width="50" height="50" relative="1" as="geometry">
            <mxPoint x="475" y="790" as="sourcePoint" />
            <mxPoint x="360" y="950" as="targetPoint" />
          </mxGeometry>
        </mxCell>
      </root>
    </mxGraphModel>
  </diagram>
</mxfile>
